<?xml version="1.0" standalone="no"?>
<!DOCTYPE svg PUBLIC "-//W3C//DTD SVG 20010904//EN"
 "http://www.w3.org/TR/2001/REC-SVG-20010904/DTD/svg10.dtd">
<svg version="1.0" xmlns="http://www.w3.org/2000/svg"
 width="154.000000pt" height="154.000000pt" viewBox="0 0 154.000000 154.000000"
 preserveAspectRatio="xMidYMid meet">
<metadata>
Created by potrace 1.11, written by Peter Selinger 2001-2013
</metadata>
<g transform="translate(0.000000,154.000000) scale(0.100000,-0.100000)"
fill="#000000" stroke="none">
<path d="M1295 1353 c5 -62 2 -111 -9 -167 -15 -76 -67 -206 -82 -206 -4 0
-16 7 -26 17 -17 15 -18 14 -24 -15 -7 -36 -15 -39 -35 -16 -11 14 -15 12 -30
-18 -9 -18 -20 -48 -24 -65 -3 -18 -9 -33 -11 -33 -3 0 -22 13 -42 30 -118 94
-287 110 -429 40 -68 -34 -153 -112 -173 -160 -7 -17 -17 -30 -23 -30 -25 0
-141 87 -199 148 -56 60 -138 204 -138 242 0 6 -4 8 -10 5 -17 -10 -11 -165 9
-250 33 -138 84 -232 184 -341 27 -30 48 -56 46 -58 -2 -2 -34 -28 -71 -58
-97 -80 -181 -158 -175 -164 2 -3 52 13 111 36 58 22 108 40 111 40 19 0 -10
-29 -111 -110 -63 -50 -113 -94 -110 -97 2 -3 67 18 143 45 76 28 173 60 215
72 l77 21 50 -36 c150 -108 375 -101 507 17 21 19 23 19 122 -6 88 -23 256
-82 304 -107 61 -32 23 18 -58 76 -102 74 -143 115 -114 115 5 0 53 -16 106
-35 54 -19 100 -32 103 -29 8 8 -80 84 -176 151 -45 32 -81 61 -80 65 1 4 25
31 52 60 160 169 234 385 205 599 -6 46 -18 91 -26 99 -12 12 -14 12 -15 -3
-1 -9 -3 -21 -4 -27 -1 -5 -3 -32 -4 -60 -1 -37 -5 -50 -16 -50 -8 0 -15 1
-15 3 -1 1 -4 31 -7 67 -3 36 -9 70 -13 75 -5 6 -12 28 -16 50 -12 64 -58 155
-78 155 -4 0 -5 -39 -1 -87z m-399 -482 c56 -25 126 -79 118 -92 -3 -5 -24
-19 -47 -30 -23 -12 -45 -26 -48 -31 -3 -5 -9 -9 -13 -8 -3 0 -29 -6 -58 -15
-28 -8 -55 -15 -60 -15 -4 0 -8 25 -8 55 0 42 -3 55 -15 55 -12 0 -15 -13 -15
-60 l0 -60 -37 -1 c-97 -4 -211 11 -242 31 -28 17 61 119 139 160 80 43 203
47 286 11z m24 -590 l45 -8 -60 -29 c-51 -25 -72 -29 -140 -29 -68 0 -89 4
-140 29 -60 29 -60 29 -30 36 40 10 269 10 325 1z"/>
</g>
</svg>
